<svg id="Layer_1" data-name="Layer 1" xmlns="http://www.w3.org/2000/svg" viewBox="0 0 533.1 751.77"><defs><style>.cls-1{fill:#688c4f;}.cls-2{fill:#8fc16d;}</style></defs><title>beans</title><path class="cls-1" d="M315.77,665.66c-3-5.59-3.76-11.68-3.6-18.12-2.54.84-4.83,1.72-7.19,2.34a33.35,33.35,0,0,1-18.78-.7c-8-2.52-11.44-8.57-10.57-16.85,1.78-17,8.87-31.72,18.54-45.45.58-.84,1-1.77,1.54-2.65q8.7-10,17.38-20.05c10.48-11.53,22.82-20.77,35.88-29.12,17-10.85,35.36-19,53.19-28.17,2.21-1.14,4.38-2.36,6.62-3.44,2.63-1.26,5.23-1.17,7.44.84a6.13,6.13,0,0,1,1.62,7.06c-.21.62-.11,1.33-.27,2-.45,1.69-.51,3.73-1.52,5-4.86,6-6.65,12.74-6.52,20.35.32,20.09.65,40.19.52,60.29-.09,15.45-3.15,30.6-10.16,44.28-7.88,15.38-18.19,29-34.54,37-8.57,4.15-17.13,3.34-25.91,1.79-.5-.09-1-.16-1.51-.24C328.54,679.13,321,674,315.77,665.66Z" transform="translate(-69.6 -13.85)"/><path class="cls-2" d="M268.23,273.22c-.69,3.66-1.57,7.3-2,11-1.92,15-4.12,30-5.46,45.1-1.49,16.74-1.82,33.55.11,50.31Q263,398,265.1,416.38c.09.76,0,1.53.07,2.3-2.81-2.16-5.56-4.43-8.47-6.46-8-5.55-13.29-13.33-18.38-21.34a21.4,21.4,0,0,0,.34-4.34c-2.23-18.05-2.19-36.16-.93-54.24,1-13.68,2.73-27.29,4.14-40.94,1.34-.25,2.69-.48,4-.76,3.59-.76,5.42-3.48,7.48-6.2A26.39,26.39,0,0,0,259,272.27c1.93-12.21,3.87-24.44,6.47-36.51,2.43-11.26,5.71-22.33,8.65-33.48,2.68-10.16,5-20.43,9.62-30,1.08-2.23,2.09-4.5,3-6.79s1.34-5.09,2.81-7c5-6.6,10.38-12.92,15.6-19.36.62-.77,1.15-1.63,1.73-2.45,4-3.27,7.95-6.72,12.15-9.78,8.42-6.14,17-12.07,25.52-18.09,1,.6,2,1.52,3.1,1.73,2,.38,4.54,1.17,6.12.36,6.76-3.48,12.33-8.64,17.69-14l.4-.51,0,0c4.2-1.13,8.38-2.39,12.61-3.37,14.37-3.32,28.82-6.64,43.66-6.27s29,3.91,42.78,9.2c.2,1.24.06,2.69.67,3.69,2.57,4.24,6.45,6.6,11.32,7.61a29.08,29.08,0,0,0,12.66-.58c5.95,2.56,11.83,5.3,17.87,7.65,10.79,4.21,22,3.9,33.24,2.53,7.47-.9,14.79-2.34,21.33-6.18,9.76-5.73,17.14-13.79,21.13-24.44,2.81-7.52,2.24-15.45.29-23.08-1.74-6.81-7.14-10.69-13-13.93-7.27-4-15-3.75-22.79-2.17-4,.81-5.78,4.2-6.24,7.75-.55,4.19-.26,8.51-.17,12.77,0,.56.95,1.3,1.62,1.58,1.33.56,2.81.77,4.17,1.27a5.62,5.62,0,0,1,3.61,7,5.76,5.76,0,0,1-7,4.16A58.51,58.51,0,0,1,544,80.11c-4.58-1.56-7.5-4.59-8.28-9.55-1-6.23-1.55-12.44.13-18.63C538.77,41,545,36,556.16,34.58c13.43-1.67,25.13,1.81,35.25,10.74,6.28,5.54,9.55,12.51,10.68,20.78,2,14.59-.82,27.73-10.38,39.28-7.44,9-16.13,16.1-27.3,19.9-2.14-1-4.24-2.14-6.43-3-3.46-1.43-6.93-2.84-10.8-1.17-1.81.77-2.82,1.82-2.58,3.83.15,1.35.33,2.7.49,4-12.62,1.55-25.06.88-37-3.81-8.77-3.46-17.5-7.12-25.93-11.33a146.66,146.66,0,0,0-46.91-14.62,82.43,82.43,0,0,0-12.07-.57c-3.3.05-6.59.67-10.47,1.11a16.8,16.8,0,0,0,1.7,1.26c1.45.76,2.88,1.54,4.37,2.2,17.59,7.77,27.46,21.69,32.32,39.86,2.26,8.42,4.23,17,8.87,24.59,2.93,4.82,6.27,9.2,10.94,12.46a10.24,10.24,0,0,1,2.65,2.42,3.53,3.53,0,0,1,.58,2.72c-.18.52-1.57.92-2.38.85a32.76,32.76,0,0,1-4.52-.95c-6.75-1.72-12.36-5.53-18.29-10.45-.53,2.79-1.33,4.93-1.24,7,.2,4.24,1,8.46,1.3,12.7a4.7,4.7,0,0,1-1,2.9c-.19.27-1.72,0-2.24-.47-2.93-2.64-5.64-5.43-7.08-9.29-1.26-3.4-2.91-6.66-4.49-10.22l-6.36,5.62a30.72,30.72,0,0,1-4.87,2.2c-1.07.3-2.35-.18-3.54-.31.17-1.09,0-2.37.55-3.26,5.7-9.68,11.41-19.35,17.34-28.89a12.07,12.07,0,0,0,1.24-10.75c-3-9.4-8.16-17.47-16.06-23.09-10.4-7.41-22.09-11.73-35.25-10.18-6,.7-12.11.82-17.8,2.45a108.06,108.06,0,0,0-18.64,7.83c-11.58,5.87-21.19,14.57-31.14,22.71-2.71,2.22-4.48,5.59-6.69,8.43-3.82,4.58-8.24,8.8-11.31,13.85-3.72,6.1-6.43,12.85-9.34,19.42-4.38,9.92-9.34,19.59-11.25,30.48-.91,5.16-3.34,10-4.58,15.16-2,8.13-3.64,16.33-5.19,24.54C270.11,260.06,269.25,266.65,268.23,273.22Z" transform="translate(-69.6 -13.85)"/><path class="cls-1" d="M427.87,182.94l6.36-5.62c1.58,3.56,3.23,6.82,4.49,10.22,1.44,3.86,4.15,6.65,7.08,9.29.52.46,2.05.74,2.24.47a4.7,4.7,0,0,0,1-2.9c-.34-4.24-1.1-8.46-1.3-12.7-.09-2.1.71-4.24,1.24-7,5.93,4.92,11.54,8.73,18.29,10.45,2.3,7.69,2.28,15.58,2.12,23.49a26.6,26.6,0,0,1-5.17,14.84c-1.62,2.33-3.2,4.67-4.62,6.75,2.25,3.26,4.67,6.16,6.44,9.42,3.17,5.86,4,12.37,4.17,18.94.1,3.43,0,6.88.09,10.31a30,30,0,0,1-4.64,16.88,3.32,3.32,0,0,0-.07,2.87c7.11,11.72,10.12,24.43,10,38.08-.08,9.87.07,19.66-1.94,29.47A27.2,27.2,0,0,0,475.16,372c1.76,4.27-1.39,8.7-6.26,9.05a16.51,16.51,0,0,1-10-2.9c-6.89-4.24-12-10.18-16-17.1-3.7-6.28-7.62-12.43-11.3-18.72a107.87,107.87,0,0,1-6-11.34c-3.3-7.63-6.24-15.41-9.4-23.1A84.38,84.38,0,0,1,410,277.79c-.41-15.54-.56-31.08,1.52-46.55a113.54,113.54,0,0,1,10.11-33.08C423.94,193.2,425.8,188,427.87,182.94Z" transform="translate(-69.6 -13.85)"/><path class="cls-1" d="M238.32,390.88c5.09,8,10.42,15.79,18.38,21.34,2.91,2,5.66,4.3,8.47,6.46,4.08,3.39,7.95,7.07,12.28,10.09,8.24,5.77,14.43,13.47,20.34,21.3,5.76,7.62,7.28,16.68,6.32,26.13-.58,5.73-1.42,11.42-4.15,16.59-3.89,7.34-9.88,11.41-18.34,11.5-2.84-.47-5.75-.71-8.52-1.45-6.71-1.81-12-6-16.85-10.75-.93-.89-1.85-2.13-3-.23-.79,1-1.58,2-2.38,3-10,12.38-27.6,8-33.45-2.18C211,481.53,205.14,470,204.06,456.86c-.58-7.09-.31-14.24-.39-21.37,0-3.17,0-6.35,0-9.53q.27-9.84.55-19.68c1.08-14.79,1.9-29.61,6.17-43.94,1.81-6.07,3.54-12.17,5.34-18.24a29.46,29.46,0,0,1,1.45-4.11,6.28,6.28,0,0,1,6.49-3.65c3.84.59,7.9,5.29,8,9.18.12,8.58-.21,17.19.53,25.71C232.78,378.08,234.17,385,238.32,390.88Z" transform="translate(-69.6 -13.85)"/><path class="cls-1" d="M197.8,490.25c3.38,13.86,6.22,27.74,5.53,42.2-.48,10-3.12,19.6-5.15,29.33-3.9,18.69-10,36.72-16.2,54.7a77.38,77.38,0,0,1-25.32,35.66c-5.21,4.15-11.41,5.86-17.71,7.2a33.89,33.89,0,0,0-12.48,5.22,7.89,7.89,0,0,1-11.21-3c-1-2.06-1.31-4.36.32-6.06,8.49-8.81,9.18-20.4,11.29-31.43a109.05,109.05,0,0,1,14.61-37.65,2.63,2.63,0,0,0,.38-2c-2.68-6.16-2.1-12.64-1.86-19,.42-11,3.43-21.46,7.65-31.58a14.09,14.09,0,0,1,1.94-3.9c2.28-2.62,2.54-5.55,2.31-8.82a72.57,72.57,0,0,1,10.52-43.83,2.43,2.43,0,0,0,.14-.74l0,0,.6-.56,10-5.63c.28,1.59.52,2.84.73,4.1.86,5.12,1.66,10.25,2.62,15.36.11.61,1.17,1.61,1.53,1.51a3.23,3.23,0,0,0,1.91-1.64c.34-.81,0-1.88.15-2.8.86-4.44,1.81-8.86,2.72-13.29l.9,0c.7.84,1.42,1.66,2.1,2.51,2.92,3.67,5.8,7.37,8.78,11A37.42,37.42,0,0,0,197.8,490.25Z" transform="translate(-69.6 -13.85)"/><path class="cls-1" d="M306.89,136.67c-.58.82-1.11,1.68-1.73,2.45-5.22,6.44-10.6,12.76-15.6,19.36-1.47,1.94-1.84,4.69-2.81,7s-1.95,4.56-3,6.79c-4.59,9.55-6.94,19.82-9.62,30-2.94,11.15-6.22,22.22-8.65,33.48-2.6,12.07-4.54,24.3-6.47,36.51a26.39,26.39,0,0,1-5.61,12.13c-2.06,2.72-3.89,5.44-7.48,6.2-1.33.28-2.68.51-4,.76-8.74.65-15.21-4.14-21.33-9.32-10.15-8.57-14.94-20-15.59-33-.44-8.72-1.28-17.58,1.12-26.13a123.33,123.33,0,0,1,13.74-31.46,156,156,0,0,1,20.59-26c4-4.1,8-8.19,12-12.33.87-.9,1.58-2,2.37-2.93,3.44-4,7.17-7.86,10.28-12.13,7-9.65,13.68-19.54,15.67-31.74a6.39,6.39,0,0,1,6-5.17,6.54,6.54,0,0,1,6.38,4.3c1.91,5,3.35,10.27,5.53,15.18C301.08,126.16,304.12,131.36,306.89,136.67Z" transform="translate(-69.6 -13.85)"/><path class="cls-1" d="M268.23,273.22c1-6.57,1.88-13.16,3.11-19.69,1.55-8.21,3.23-16.41,5.19-24.54,1.24-5.12,3.67-10,4.58-15.16,1.91-10.89,6.87-20.56,11.25-30.48,2.91-6.57,5.62-13.32,9.34-19.42,3.07-5.05,7.49-9.27,11.31-13.85,7.16,13.21,10.57,27.59,13.46,42.18A214.1,214.1,0,0,1,331,233.34,79.62,79.62,0,0,1,324,266c-4.88,11-19.79,22.7-35.15,20.12-5.41-.91-10.3-3.07-13.3-8.18A9.65,9.65,0,0,0,268.23,273.22Z" transform="translate(-69.6 -13.85)"/><path class="cls-2" d="M197.8,490.25a37.42,37.42,0,0,1-3.23-3.19c-3-3.63-5.86-7.33-8.78-11-.68-.85-1.4-1.67-2.1-2.51l-.9,0c-.91,4.43-1.86,8.85-2.72,13.29-.18.92.19,2-.15,2.8a3.23,3.23,0,0,1-1.91,1.64c-.36.1-1.42-.9-1.53-1.51-1-5.11-1.76-10.24-2.62-15.36-.21-1.26-.45-2.51-.73-4.1l-10,5.63-.6.56,0,0a12.86,12.86,0,0,1-3,.34c-1.11-.13-2.62-.34-3.1-1.08s.18-2.28.84-3c4-4.67,8.24-9.21,12.35-13.82a21.67,21.67,0,0,0,5.64-12.65c1.2-12,7.47-20.93,17.1-27.76.48-.35,1-.69,1.45-1.06.1-.09.11-.3.2-.58-22-3.53-43.1-10.35-64.58-15.76-.9-.23-1.85-.28-2.77-.42l-8.12-2.15a12.87,12.87,0,0,0-2.38-1.84c-11.13-5.06-21.94-10.81-31.52-18.36-11.61-9.16-17-21.48-14.49-36.36,2-12.05,12-20.93,24.89-23.78,8.37-1.84,15.92-1.07,22.87,4.33,7.13,5.53,10.79,19.56,1.89,27.21a20.29,20.29,0,0,1-13.95,5,5.84,5.84,0,0,1-5.74-5.8,6,6,0,0,1,5.32-6,25.82,25.82,0,0,0,3-.41c5-1.3,6.59-6.25,2.78-9.81-1.84-1.72-4.52-3.45-6.89-3.56-7.69-.35-14.64,2-19.58,8.32-4.7,6-4.43,16.48.28,23.75A36.55,36.55,0,0,0,96,372c14.62,9.59,30.11,16.88,47.38,20.55,15.58,3.31,30.92,7.71,46.42,11.42,4.72,1.13,9.62,1.58,14.44,2.34q-.27,9.84-.55,19.68a4.74,4.74,0,0,0-1.68.29c-6.42,4-11.61,8.94-14,16.45-1.81,5.75-.94,11.33,1.08,16.6,3.47,9,7.52,17.81,11.39,26.66C201.85,489,201.15,490.24,197.8,490.25Z" transform="translate(-69.6 -13.85)"/><path class="cls-2" d="M254.8,150.25c-.79,1-1.5,2-2.37,2.93-4,4.14-8,8.23-12,12.33,1.23-8.39,2.83-16.75,3.58-25.19a129.5,129.5,0,0,0,.33-22.1c-1-12-2.56-23.87-4.53-35.7a64.12,64.12,0,0,0-5.21-16.33c-3.79-8.14-7.49-16.58-12.86-23.65a34.45,34.45,0,0,0-26-14,49,49,0,0,0-13.24,1.39c-6,1.36-10.27,6.79-10.6,13.42-.22,4.58.43,9.21.83,13.81a4.38,4.38,0,0,0,3.89,4.23,61.29,61.29,0,0,0,10.45.84c3-.11,4.79-2.3,5.57-5.26a5.79,5.79,0,0,1,5-4.55A5,5,0,0,1,203.15,55a8.37,8.37,0,0,1,.85,5.09,17.53,17.53,0,0,1-16.08,14,56.62,56.62,0,0,1-12.53-.84c-8.27-1.43-13.18-6.45-14.51-14.85-1.17-7.34-1.8-14.65.42-21.92,3.1-10.12,9.93-16.26,20.14-18.53,9.94-2.21,19.85-2.09,29.28,2.11,10.32,4.59,19,11.27,24.77,21.25a11.42,11.42,0,0,0,1.26,1.52c-.53,4.24.58,7.7,4.65,9.75l.56.56,0,0c1.18,2.64,2.31,5.3,3.53,7.93a87.48,87.48,0,0,1,7.48,28.16c1.28,12.51,3,25,3.57,37.55C256.86,134.52,255.43,142.4,254.8,150.25Z" transform="translate(-69.6 -13.85)"/><path class="cls-1" d="M371.47,96.9c-5.36,5.35-10.93,10.51-17.69,14-1.58.81-4.1,0-6.12-.36-1.1-.21-2.07-1.13-3.1-1.73-9.63-10.58-8.16-22.59-4.38-34.83a39.39,39.39,0,0,1,3.48-8c4.44-7.72,9-15.4,13.7-22.94,3.07-4.91,4.43-9.94,3.05-15.66a14.19,14.19,0,0,1-.34-4.59,3.47,3.47,0,0,1,1.38-2.45A2.91,2.91,0,0,1,364,21c6.56,5.71,12.34,11.9,16,20.13,6,13.57,5.67,27.08.52,40.51-2,5.27-5.69,9.91-8.62,14.83l0,0Z" transform="translate(-69.6 -13.85)"/><path class="cls-2" d="M315.77,665.66c5.22,8.35,12.77,13.47,22.16,16.08-.74,14-1.23,28.11-2.28,42.13s-2.62,27.79-4,41.76H308.19c.65-4.65,1.38-9.09,1.88-13.56.9-8,1.92-16,2.44-24,.76-11.9,1-23.82,1.7-35.73.35-6.24,1.15-12.46,1.59-18.71C316,671,315.79,668.31,315.77,665.66Z" transform="translate(-69.6 -13.85)"/><path class="cls-2" d="M253.26,491.86c1.14-1.9,2.06-.66,3,.23,4.9,4.7,10.14,8.94,16.85,10.75,2.77.74,5.68,1,8.52,1.45,2.58,6.59,4.61,13.47,7.87,19.7,4.24,8.09,9.59,15.59,14.21,23.49,2.88,4.94,5.29,10.16,8,15.22a6.88,6.88,0,0,0,1.43,1.48q-8.68,10-17.38,20.05c-4.36-10.5-8-21.34-15-30.55A102,102,0,0,1,273,541.54c-8.28-14.79-14.16-30.56-18.65-46.87C254.05,493.71,253.62,492.8,253.26,491.86Z" transform="translate(-69.6 -13.85)"/><path class="cls-1" d="M495.54,106.71a29.08,29.08,0,0,1-12.66.58c-4.87-1-8.75-3.37-11.32-7.61-.61-1-.47-2.45-.67-3.69,3.08-2.6,6.05-5.34,9.26-7.76A62.16,62.16,0,0,1,502,77.59,84.58,84.58,0,0,0,526.34,66.9c1-.63,2.46-.51,3.7-.74.07,1.36.56,2.87.12,4a118.38,118.38,0,0,1-6,14.73c-5.43,10.22-13.21,17.89-24.9,20.72C498,106,496.77,106.36,495.54,106.71Z" transform="translate(-69.6 -13.85)"/><path class="cls-1" d="M241.4,52.55c-4.07-2-5.18-5.51-4.65-9.75-.56-16.61,13.19-26.38,26.25-28.36,4.37-.66,8.7-1.1,12.92.6a2.94,2.94,0,0,1,1.72,1.62,2.38,2.38,0,0,1-.94,2.1c-6.59,3.18-6.88,9.68-8.54,15.55a61.2,61.2,0,0,1-4.25,12,16.09,16.09,0,0,1-20.55,7.11,9.72,9.72,0,0,0-1.44-.33l0,0Z" transform="translate(-69.6 -13.85)"/><path class="cls-1" d="M118.59,398.47l8.12,2.15c3.87,3.95,3.79,9,3.16,13.79C127.64,431.33,107.06,443,91.49,432c-1.5-1.06-3.44-2.81-3.49-4.3-.08-2.45,2.79-1.94,4.49-2.32,5.94-1.33,10-4.61,11.81-10.55,1-3.19,2.32-6.26,3.55-9.37C109.77,400.63,113.22,398.07,118.59,398.47Z" transform="translate(-69.6 -13.85)"/><path class="cls-1" d="M545.09,128.93c-.16-1.34-.34-2.69-.49-4-.24-2,.77-3.06,2.58-3.83,3.87-1.67,7.34-.26,10.8,1.17,2.19.91,4.29,2,6.43,3,6.91,5.6,10.8,13.1,13.73,21.3a84,84,0,0,0,4.33,9c1.94,3.9,5.62,5,9.49,5.69,1.32.23,2.82.21,2.58,2s-1.89,1.84-3.24,1.56c-8.66-1.78-17.2-3.94-24.74-8.86-6.74-4.4-13-9.32-17-16.51C547.71,136.16,546.55,132.46,545.09,128.93Z" transform="translate(-69.6 -13.85)"/></svg>