<svg id="Layer_1" data-name="Layer 1" xmlns="http://www.w3.org/2000/svg" viewBox="0 0 566.23 642.59"><defs><style>.cls-1{fill:#688c4f;}.cls-2{fill:#8ec06d;}</style></defs><title>spinach</title><path class="cls-1" d="M207.76,620.92c-9.69,6.73-20.81,9.3-32.2,11-3.6.56-7.23,1.55-10.82,1.44-17.93-.55-35.9-1.45-52.93-7.73-7.46-2.75-14.56-6.53-21.65-10.19A117.81,117.81,0,0,1,78,607.81a148.09,148.09,0,0,1-23.61-20.46c-5.21-5.5-10.11-11.32-14.85-17.25C32.8,561.69,27,552.64,24,542.18a39.7,39.7,0,0,1-1.71-11.78c.15-5.55,3.17-9.92,7.39-13.52a70.62,70.62,0,0,1,21.81-12.31c14.72-5.46,30.05-7,45.53-7.64,6.45-.27,12.92,0,19.38,0h2.17c-.6-1.68-1.09-3.15-1.65-4.58-6.49-16.44-10.46-33.53-13.22-50.93-2.14-13.41-4.31-26.82-6.39-40.24a258.18,258.18,0,0,1-3-40.63c0-8.37.14-16.74-.08-25.1-.18-6.93-1-13.84-1.12-20.76-.16-10.34.24-20.69,2.42-30.84,1.47-6.84,4.1-9.11,10.93-10.18a125.26,125.26,0,0,1,29.91-.71c7.38.63,14.77,1.25,22.08,2.36a47.76,47.76,0,0,1,11.86,3.52,194,194,0,0,1,18.89,9.37c5.66,3.25,10.86,7.31,16.39,10.8,4.13,2.62,8.47,4.89,12.7,7.34,1.48.86,2.9,1.82,4.63,2.9,0-1.06,0-1.72,0-2.38.44-31.16.6-62.31,1.42-93.45.42-15.55,1.75-31.1,3.27-46.58.66-6.77,2.57-13.46,4.34-20.07a120.53,120.53,0,0,1,10-26,40.59,40.59,0,0,1,7.1-9.87c6.78-6.58,14.53-11.88,24-13.76a42.75,42.75,0,0,1,11-.64,215.63,215.63,0,0,1,23.29,2.37c9.07,1.61,16.51,7,23.74,12.39A97.16,97.16,0,0,1,341.06,120c6.21,6.16,12.61,12.18,18.18,18.89,7.48,9,14.47,18.46,21.28,28,6.45,9,12.43,18.44,18.54,27.73,3.39,5.15,6.51,10.47,10,15.58a135.75,135.75,0,0,1,19.16,43.55c.13.52.31,1,.57,1.92,2.49-1.72,4.78-3.44,7.21-4.93,3.06-1.89,6.17-3.73,9.37-5.36,7.05-3.6,14.16-7.07,21.27-10.55s14.54-6.93,21.7-10.59a53.92,53.92,0,0,1,23-5.79c7.21-.26,12.67,2.44,15.84,8.87A148.45,148.45,0,0,1,533,241.87c1.23,3.37,2,6.89,3.14,10.3,3.39,10.25,4.8,20.9,6.31,31.51,1.9,13.39,3.89,26.78,5,40.24a276,276,0,0,1,.7,31.38c-.56,20.12-1.57,40.23-2.54,60.33-.57,11.68-1.52,23.35-4.85,34.63-1.79,6-4.09,11.89-6.23,18,1.64,0,3.44.06,5.22,0a67.88,67.88,0,0,1,30,5.87,36.7,36.7,0,0,1,13.06,9.12,21.6,21.6,0,0,1,5.41,12.47,56.41,56.41,0,0,1-2.71,23.48,120.19,120.19,0,0,1-13.71,29.19c-3.9,5.94-8.13,11.68-12.49,17.3-6,7.68-12.45,14.91-20.63,20.32-5,3.28-10.21,6.09-15.25,9.24-8.1,5.06-17.06,7.63-26.26,9.9-11.86,2.92-23.81,3.74-35.91,3.61-4.28,0-8.58.06-12.84-.24-6.11-.43-11.05-3.89-16-6.94-3-1.84-5.6-4.4-8.37-6.63a4.4,4.4,0,0,1,.64-1.24c6.42-6.31,12.75-12.74,19.36-18.86,4.81-4.45,9.86-8.66,15.05-12.65,6.49-5,13.13-9.77,19.91-14.33,4.65-3.13,9.63-5.8,14.53-8.55,5.78-3.25,11.62-6.38,17.46-9.54,5.47-3,10.84-6.17,16.49-8.76,5.91-2.7,12.06-4.89,18.19-7.1a8.4,8.4,0,0,0,4.68-3.92,6.74,6.74,0,0,0-5.67-9.88,51.19,51.19,0,0,0-7.33.05c-5.12.72-10.31,1-15.15,3.21-7.47,3.35-15,6.46-22.54,9.77-6.68,3-13.41,5.83-19.93,9.12-5.66,2.85-11.17,6.07-16.57,9.41-6.67,4.14-13.17,8.56-19.71,12.91a3.31,3.31,0,0,0-1.3,1.66c-2.38,8.11-4.47,16.3-7.07,24.33-2.26,7-5.5,13.72-10.53,19.12a195.42,195.42,0,0,0-15.31,19.41c-4.79,6.68-11.1,11.81-17.41,16.91-3.1,2.5-6.72,4.34-9.93,6.73a29.28,29.28,0,0,1-13.94,5.72c-5.3.65-10.68.58-16,.83l-5-.46c-.17-.1-.34-.27-.53-.28q-9.92-.64-19.85-1.26c-.78,0-1.57-.07-2.43-.11,0-1,0-1.77,0-2.5.52-6.61,1.08-13.22,1.57-19.83.34-4.53.49-9.07.89-13.58.58-6.53,1.27-13.06,2-19.57.66-6,1.36-12,2.14-17.92.85-6.5,1.82-13,2.75-19.47,1.11-7.69,2-15.42,3.44-23.05,2.39-12.62,4.92-25.23,7.82-37.74s5.9-24.77,9.51-37A330.84,330.84,0,0,1,372,399.41c4.39-9.32,8.85-18.61,13.15-28,2.95-6.4,5.67-12.91,8.48-19.37,1.62-3.73,3.37-7.42,4.8-11.22a7,7,0,0,0-3.32-8.68c-3.37-1.52-6.44-.41-8.6,3.1-.17.28-.4.54-.6.81-4.74,6.34-9.65,12.57-14.19,19.05-6.76,9.66-13.51,19.35-19.78,29.33-5,8-9.61,16.38-13.93,24.82-3.48,6.81-6.36,13.94-9.37,21-2.51,5.85-5.17,11.67-7.17,17.71-3.84,11.63-7.59,23.32-10.75,35.15-2.67,10.05-4.66,20.3-6.57,30.53s-3.39,20.4-4.91,30.62c-.76,5.08-1.21,10.21-1.72,15.32q-.87,8.48-1.58,17c-.35,4.12-.57,8.24-.88,12.36-.51,6.75-1.07,13.49-1.57,20.24-.32,4.25-.56,8.51-.88,12.76-.13,1.7-.38,3.38-.62,5.42-1.56-1.26-3.06-2.08-4-3.32-5.31-6.75-10.61-13.51-15.67-20.45-4-5.53-7.88-11.25-10.08-17.81-3.22-9.57-6.55-19.1-9.36-28.79a77.13,77.13,0,0,1-3.44-22.2c.11-13.73.23-27.45.45-41.18a76.83,76.83,0,0,1,.86-10.72c1.12-7.07,2.54-14.1,3.78-21.15a3.68,3.68,0,0,0-.29-2.12c-4.58-9.54-9.1-19.12-13.88-28.57-3.73-7.37-7.41-14.82-11.83-21.78-4.23-6.66-9.28-12.81-14.17-19-4.52-5.74-9.21-11.37-14-16.89-5.24-6-10.65-12-17.67-16.07-2.1-1.23-4.08-3-6.34-3.48a8.75,8.75,0,0,1-4.46-2.37c-1-1-2.21-1.78-3.35-2.64-3.23-2.45-7-2.18-9.25.66a7.05,7.05,0,0,0,.8,9.71q4,3.69,7.93,7.54a62.5,62.5,0,0,1,4.44,4.77,153.92,153.92,0,0,1,14.93,21.24c3.56,6.16,7.57,12.06,11,18.29,5.44,9.93,10.92,19.86,15.69,30.11,4.55,9.76,8.48,19.82,12.16,29.94,2.85,7.82,5,15.91,7.26,23.92,4.4,15.43,8.8,30.87,13,46.37,2.08,7.7,3.83,15.5,5.42,23.32,2.82,13.84,5.46,27.72,8.07,41.6.87,4.58,1.43,9.21,2.14,13.82l-14.28-1.36c-1.49-1.61-3-3.24-4.48-4.83-3.17-3.35-6.34-6.7-9.56-10-2.31-2.38-4.64-4.74-7-7-3.9-3.72-7.62-7.68-11.85-11a130,130,0,0,0-14.51-9.7c-5.54-3.25-11.25-6.26-17.08-9-7-3.24-14.16-6.1-21.31-9-3.64-1.48-7.4-2.66-11.09-4-5.27-1.93-10.42-4.23-15.8-5.76-8.25-2.35-16.65-4.2-25-6.2-4.69-1.13-9.18-3.16-14.18-2.93a11.54,11.54,0,0,1-4.13-.81c-8.83-3-17.62-6.12-26.47-9.08a62,62,0,0,0-6.16-1.17c-4-.87-6.81,2.34-7.52,5.92-.54,2.76,2.15,7,4.8,7.62,3,.68,6,1.21,8.87,2.12,6.19,1.94,12.38,3.9,18.43,6.2,8,3.06,15.86,6.65,23.92,9.63,7.55,2.81,15.24,5.19,22.35,9.1,6,3.3,12.18,6.24,18.28,9.35s12.42,6.39,18.65,9.54c5.32,2.7,10.61,5.39,15.12,9.41,3,2.7,6.34,5.09,9.42,7.74,1.74,1.49,3.27,3.24,4.91,4.86Q202.05,615.31,207.76,620.92ZM311.13,342.63l.68.51c2.6-2.81,5.09-5.73,7.82-8.42,5.65-5.55,11.36-11.06,17.18-16.43,2.46-2.27,4-4.32,3.35-8.13-1.28-7.1-1.6-14.37-2.73-21.5-1.36-8.68-3.07-17.3-4.77-25.92-2.58-13.13-5.19-26.25-8-39.35-1.36-6.41-3.09-12.75-4.68-19.12q-3-12.21-6.12-24.4a124.74,124.74,0,0,0-9.73-26.25,5.76,5.76,0,0,0-5-3.29c-5.65-.42-8.77,4.62-6.43,10a22.76,22.76,0,0,1,1.54,5.81c.62,4.28,1,8.59,1.53,12.88.69,5.56,1.44,11.12,2.17,16.68.88,6.63,1.74,13.26,2.67,19.88,1,7,2.14,13.89,3,20.85.82,6.44,1.45,12.9,2.09,19.35.71,7.13,1.42,14.27,2,21.41.51,6.61.84,13.24,1.23,19.86.56,9.46,1.16,18.93,1.62,28.39.27,5.49.31,11,.46,16.48C311.07,342.15,311.11,342.39,311.13,342.63ZM440.8,373.32c.63-1.41,1.14-2.72,1.79-4,2.81-5.41,5.49-10.9,8.53-16.17,5.58-9.67,11.44-19.18,17.07-28.82,2.5-4.27,4.83-8.64,7-13.06a6.42,6.42,0,0,0-2.82-8.71c-3.4-1.66-7.13-.73-8.72,2.62-2.5,5.25-7,8.88-10.31,13.51-2.05,2.91-4.66,5.41-6.88,8.21q-5.73,7.21-11.26,14.61a3.51,3.51,0,0,0-.54,2.55C436.66,353.8,438.73,363.49,440.8,373.32Z" transform="translate(-22.28 -96.39)"/><path class="cls-2" d="M351.92,639.3c5.34-.25,10.72-.18,16-.83a29.28,29.28,0,0,0,13.94-5.72c3.21-2.39,6.83-4.23,9.93-6.73,6.31-5.1,12.62-10.23,17.41-16.91a195.42,195.42,0,0,1,15.31-19.41c5-5.4,8.27-12.12,10.53-19.12,2.6-8,4.69-16.22,7.07-24.33a3.31,3.31,0,0,1,1.3-1.66c6.54-4.35,13-8.77,19.71-12.91,5.4-3.34,10.91-6.56,16.57-9.41,6.52-3.29,13.25-6.17,19.93-9.12,7.49-3.31,15.07-6.42,22.54-9.77,4.84-2.17,10-2.49,15.15-3.21a51.19,51.19,0,0,1,7.33-.05,6.74,6.74,0,0,1,5.67,9.88,8.4,8.4,0,0,1-4.68,3.92c-6.13,2.21-12.28,4.4-18.19,7.1-5.65,2.59-11,5.8-16.49,8.76-5.84,3.16-11.68,6.29-17.46,9.54-4.9,2.75-9.88,5.42-14.53,8.55-6.78,4.56-13.42,9.36-19.91,14.33-5.19,4-10.24,8.2-15.05,12.65-6.61,6.12-12.94,12.55-19.36,18.86A4.4,4.4,0,0,0,424,595a31.4,31.4,0,0,0-2.26,2.36c-6.73,8.52-13.55,17-20.08,25.63-4.41,5.84-8.54,11.91-12.53,18a89.8,89.8,0,0,0-10,20.63c-1.55,4.69-3.85,9.12-5.6,13.75-3.33,8.82-6.48,17.7-9.73,26.54-4.36,11.86-9.16,23.52-15.38,34.56-.94,1.66-1.89,2.52-4.05,2.51q-31-.16-62,0c-2.16,0-3.42-.66-4.23-2.57-2.81-6.61-5.51-13.28-8.54-19.78-2.6-5.6-5.37-11.14-8.46-16.48-5.05-8.75-10.4-17.31-15.64-25.94-5.35-8.81-10.55-17.72-16.17-26.35-3.06-4.69-6.87-8.9-10.34-13.32-3-3.78-5.93-7.57-8.94-11.32a29.1,29.1,0,0,0-2.28-2.3q-5.72-5.62-11.41-11.25c-1.64-1.62-3.17-3.37-4.91-4.86-3.08-2.65-6.38-5-9.42-7.74-4.51-4-9.8-6.71-15.12-9.41-6.23-3.15-12.43-6.36-18.65-9.54s-12.29-6-18.28-9.35c-7.11-3.91-14.8-6.29-22.35-9.1-8.06-3-15.89-6.57-23.92-9.63-6-2.3-12.24-4.26-18.43-6.2-2.89-.91-5.9-1.44-8.87-2.12-2.65-.6-5.34-4.86-4.8-7.62.71-3.58,3.49-6.79,7.52-5.92a62,62,0,0,1,6.16,1.17c8.85,3,17.64,6.08,26.47,9.08a11.54,11.54,0,0,0,4.13.81c5-.23,9.49,1.8,14.18,2.93,8.35,2,16.75,3.85,25,6.2,5.38,1.53,10.53,3.83,15.8,5.76,3.69,1.36,7.45,2.54,11.09,4,7.15,2.9,14.32,5.76,21.31,9,5.83,2.7,11.54,5.71,17.08,9a130,130,0,0,1,14.51,9.7c4.23,3.32,8,7.28,11.85,11,2.39,2.3,4.72,4.66,7,7,3.22,3.31,6.39,6.66,9.56,10,1.51,1.59,3,3.22,4.48,4.83,1.18,1.61,2.28,3.29,3.55,4.83,4.38,5.32,8.83,10.59,13.5,16.18-.43-3.85-.75-7.28-1.23-10.68-.42-3-1-6-1.54-9-.71-4.61-1.27-9.24-2.14-13.82-2.61-13.88-5.25-27.76-8.07-41.6-1.59-7.82-3.34-15.62-5.42-23.32-4.17-15.5-8.57-30.94-13-46.37-2.29-8-4.41-16.1-7.26-23.92-3.68-10.12-7.61-20.18-12.16-29.94-4.77-10.25-10.25-20.18-15.69-30.11-3.42-6.23-7.43-12.13-11-18.29a153.92,153.92,0,0,0-14.93-21.24,62.5,62.5,0,0,0-4.44-4.77q-3.9-3.84-7.93-7.54a7.05,7.05,0,0,1-.8-9.71c2.24-2.84,6-3.11,9.25-.66,1.14.86,2.31,1.68,3.35,2.64a8.75,8.75,0,0,0,4.46,2.37c2.26.46,4.24,2.25,6.34,3.48,7,4.11,12.43,10,17.67,16.07,4.8,5.52,9.49,11.15,14,16.89,4.89,6.21,9.94,12.36,14.17,19,4.42,7,8.1,14.41,11.83,21.78,4.78,9.45,9.3,19,13.88,28.57a3.68,3.68,0,0,1,.29,2.12c-1.24,7.05-2.66,14.08-3.78,21.15a76.83,76.83,0,0,0-.86,10.72c-.22,13.73-.34,27.45-.45,41.18a77.13,77.13,0,0,0,3.44,22.2c2.81,9.69,6.14,19.22,9.36,28.79,2.2,6.56,6,12.28,10.08,17.81,5.06,6.94,10.36,13.7,15.67,20.45,1,1.24,2.48,2.06,4,3.32.24-2,.49-3.72.62-5.42.32-4.25.56-8.51.88-12.76.5-6.75,1.06-13.49,1.57-20.24.31-4.12.53-8.24.88-12.36q.72-8.49,1.58-17c.51-5.11,1-10.24,1.72-15.32,1.52-10.22,3-20.46,4.91-30.62s3.9-20.48,6.57-30.53c3.16-11.83,6.91-23.52,10.75-35.15,2-6,4.66-11.86,7.17-17.71,3-7,5.89-14.17,9.37-21,4.32-8.44,8.89-16.8,13.93-24.82,6.27-10,13-19.67,19.78-29.33,4.54-6.48,9.45-12.71,14.19-19.05.2-.27.43-.53.6-.81,2.16-3.51,5.23-4.62,8.6-3.1a7,7,0,0,1,3.32,8.68c-1.43,3.8-3.18,7.49-4.8,11.22-2.81,6.46-5.53,13-8.48,19.37-4.3,9.37-8.76,18.66-13.15,28a330.84,330.84,0,0,0-17.75,47.16c-3.61,12.19-6.65,24.57-9.51,37s-5.43,25.12-7.82,37.74c-1.45,7.63-2.33,15.36-3.44,23.05-.93,6.49-1.9,13-2.75,19.47-.78,6-1.48,11.94-2.14,17.92-.71,6.51-1.4,13-2,19.57-.4,4.51-.55,9.05-.89,13.58-.49,6.61-1.05,13.22-1.57,19.83-.06.73,0,1.48,0,2.5.86,0,1.65.06,2.43.11q9.93.62,19.85,1.26c.19,0,.36.18.53.28l-.84,10.24.33.09Z" transform="translate(-22.28 -96.39)"/><path class="cls-2" d="M311.13,342.63c0-.24-.06-.48-.07-.73-.15-5.49-.19-11-.46-16.48-.46-9.46-1.06-18.93-1.62-28.39-.39-6.62-.72-13.25-1.23-19.86-.56-7.14-1.27-14.28-2-21.41-.64-6.45-1.27-12.91-2.09-19.35-.9-7-2.06-13.89-3-20.85-.93-6.62-1.79-13.25-2.67-19.88-.73-5.56-1.48-11.12-2.17-16.68-.54-4.29-.91-8.6-1.53-12.88a22.76,22.76,0,0,0-1.54-5.81c-2.34-5.36.78-10.4,6.43-10a5.76,5.76,0,0,1,5,3.29,124.74,124.74,0,0,1,9.73,26.25q3.08,12.19,6.12,24.4c1.59,6.37,3.32,12.71,4.68,19.12,2.77,13.1,5.38,26.22,8,39.35,1.7,8.62,3.41,17.24,4.77,25.92,1.13,7.13,1.45,14.4,2.73,21.5.68,3.81-.89,5.86-3.35,8.13-5.82,5.37-11.53,10.88-17.18,16.43-2.73,2.69-5.22,5.61-7.82,8.42Z" transform="translate(-22.28 -96.39)"/><path class="cls-2" d="M440.8,373.32c-2.07-9.83-4.14-19.52-6.11-29.23a3.51,3.51,0,0,1,.54-2.55q5.53-7.38,11.26-14.61c2.22-2.8,4.83-5.3,6.88-8.21,3.27-4.63,7.81-8.26,10.31-13.51,1.59-3.35,5.32-4.28,8.72-2.62a6.42,6.42,0,0,1,2.82,8.71c-2.2,4.42-4.53,8.79-7,13.06-5.63,9.64-11.49,19.15-17.07,28.82-3,5.27-5.72,10.76-8.53,16.17C441.94,370.6,441.43,371.91,440.8,373.32Z" transform="translate(-22.28 -96.39)"/></svg>