<svg id="Layer_1" data-name="Layer 1" xmlns="http://www.w3.org/2000/svg" viewBox="0 0 2004 1316.79"><defs><style>.cls-1{fill:#8fc06d;}.cls-2{fill:#b31b01;}</style></defs><title>tomato</title><path class="cls-1" d="M-572.89,629.7l10.31-3.94c-4.84-1.82-8.47-3.2-12.12-4.55-6.39-2.36-12.85-4.56-19.14-7.16-1.38-.57-2.18-2.53-3.25-3.84,1.32-1.05,2.5-2.7,4-3,13.45-3.1,27.07-3.08,40.67-1.24,7.51,1,12.09-2.57,12.65-10.21.84-11.44,1.35-22.94,3-34.28,1.77-12.39,7.75-22.26,20.36-26.65a51.53,51.53,0,0,1,6.89-1.37V492.2c-4.72,8.67-8.79,16.48-13.17,24.11-12.24,21.34-26.39,41.45-44.64,58a469.2,469.2,0,0,1-47.69,37.79c-17.29,12-37.56,17.62-58,21.81-9.87,2-14.7-2.24-15.65-12.85-2.74-30.69,2.28-59.17,21.81-84.35,11.52-14.85,23.27-29.06,39.48-39.09a76.3,76.3,0,0,1,38.35-11.34c18.26-.56,36.57.28,54.85.65,2.4.05,3.93-.12,4.93-2.76,5.85-15.39,12-30.68,17.78-46.09a27.19,27.19,0,0,0,1.55-9.23c.19-25.66-.1-51.33.35-77,.55-31,3.4-61.89,11.79-91.83,14.79-52.77,44.28-96.23,88.44-128.41,27-19.67,58.13-29.9,92.35-30.66,41.4-.92,80.4,7.42,117,26.35a447.61,447.61,0,0,1,94.6,65.43c39.64,35.72,74.35,75.86,109.13,116,18.86,21.78,37.49,43.76,56.18,65.68,3.09,3.62,6,7.39,10,12.28,0-10.08-.57-18.68.09-27.18,3.79-48.66,20.07-92.15,54.85-127.42,24-24.35,51.49-43.63,84-55.15a5.56,5.56,0,0,0,1.21-.81c2.07-.6,4.17-1.1,6.2-1.8,15.64-5.4,31.36-10.36,48.29-8.37,2.48,4.2,5.89,8.1,7.3,12.63,5.81,18.73,4.28,37.85,1.82,56.91-1.52,11.74-2.75,23.74-9.78,33.71a375.67,375.67,0,0,1-24.33,31.64c-15.13,17.24-35.6,26.4-56.18,35.32-21.89,9.5-44.43,13.59-68.2,10-7.5-1.15-15-2-22.88-3-.45,2.9-1.18,5.5-1.19,8.11,0,18.3-.13,36.6.26,54.9.09,4.09.79,9.12,3.22,12.08,30.42,37,56,77.46,84.11,116.1,14.57,20,26.24,42.22,41.07,62,28.1,37.59,52,77.76,76,118,5.23,8.78,10,17.85,15.15,27.2,0-2.21.11-3.86,0-5.5-1.19-15.6-2.86-31.18-3.52-46.8-1.34-31.44-2.91-62.91-3-94.38-.4-124.82-.25-249.64-.42-374.47,0-3.16-1.42-6.31-2-9.49-.81-4.49-2.15-9-2-13.51.49-20.28,1.41-40.55,2.14-60.83,0-.58-.48-1.18-.73-1.77,6.37-10.79,9.62-22.49,6.48-34.71-2.05-8-6.39-15.41-9.7-23.08-2.47-8.6-4.21-17.49-7.53-25.74-8-19.87-16.75-39.44-25.15-59.14-2.7-6.32-7.12-7.95-13.16-4.41a32.56,32.56,0,0,0-6.24,4.93C238.25.25,234.29,9.81,231.75,20.15c-1,4.15.53,6.71,4.19,7.64a147.56,147.56,0,0,0,16.45,3.09c3.93.53,8,.08,11.9.76,2.93.51,7.68-.31,7.44,4.35-.06,1.14-5.35,2.79-8.26,2.85a39.27,39.27,0,0,0-17.1,4.31l15.56,8.42L264.08,53l-.07-.1a29.4,29.4,0,0,0,2.12,2.92c2.91,3.18,6,6.19,8.78,9.49.78.94.6,2.67.86,4a19.27,19.27,0,0,1-4.69.72c-1-.09-1.94-1.17-2.86-1.87-8-6.08-16.52-11.2-26.74-12.69-14.57-2.13-28.79-2.85-39.44,10.1-3.16,3.85-6.52,7.65-9,11.94-5,8.77-9.45,17.88-14.28,26.77-.67,1.24-2.26,2-3.43,2.94-.75-1-2.15-1.94-2.16-2.92-.12-12.78-1.23-25.76,3.73-37.95,2.44-6,6-11.52,9-17.24a1.71,1.71,0,0,0-.66-.23c-1-.07-2-.08-3-.12-3.16.22-6.72-.42-9.42.81-13.76,6.31-27.09,13.62-42.34,15.94a222.23,222.23,0,0,1-54.78,1.25c-7.57-.73-11.28-7.5-8.63-14.66.4-1.07,1.08-2.22,1-3.27C65.32,18.14,77.62-6.81,97-29.41c20.41-23.82,46.09-39.3,76.55-44.58,16.93-2.94,34.8-.52,52.24-.44,2.16,0,4.3.47,6.46.66a8.12,8.12,0,0,0,2-.48c-2.89-4.58-5.56-8.93-8.35-13.21-11.2-17.15-22.15-34.47-33.75-51.35a78.15,78.15,0,0,0-30.22-26.33c-13.2-6.45-27.31-7.1-41.44-4.48-8.37,1.55-14,8.17-19.83,13.79C72.64-129,52-97.17,37.18-61.58,30.62-45.81,25.48-29.44,20-13.25A7.88,7.88,0,0,0,21.06-7c14.4,19.16,17,41.1,15.53,64.07-1,15.28-1.46,30.7-6.61,45.29A205.69,205.69,0,0,1,5.09,151.7a39.92,39.92,0,0,1-5.55,6.41c-4.94,4.57-11.35,4.67-16.15,0-19.59-19-35.6-40.53-45.72-66-5-12.57-4.39-25.93-3.16-39A149.84,149.84,0,0,1-33.91-26.1C-23.35-39.55-19.3-54.93-13.16-69.71c14.16-34.06,31.64-66,54.87-94.76C54.21-179.92,68-194.21,84-206.09a68.25,68.25,0,0,1,37.52-13.6c19.4-1,38.7-.07,56.84,7.89,18.77,8.23,35.22,20.08,47.43,36.5,23.65,31.82,46.14,64.56,63.73,100.17,11,22.34,19.72,45.83,29.51,68.79Q331,21.89,343.13,50a4.55,4.55,0,0,0,.9-1.19Q357.38,21.71,370.7-5.42c1.06-2.15,2-3.85-.39-6.11-22-21-35.49-46.48-41.25-76.42-4.53-23.56-7.54-47.26-3.88-71,6-38.6,20.37-73.34,51.4-99.23,5.69-4.75,11.92-4.56,17.88,1.06,12,11.35,20.66,24.71,24.09,41.14,4.69,22.5,7,45.12-3.61,66.49-9.62,19.36-20.06,38.39-36.33,53.41-7.45,6.87-14.49,14.2-21.52,21.51-1.11,1.16-2,3.64-1.54,5,5.28,15.6,15.43,28.1,26.19,41.32,1.9-3.37,3.43-5.87,4.77-8.46,14-27,35.39-47.3,59.79-64.72,11-7.82,21.93-15.72,33.31-22.91,16.29-10.29,34.61-14.36,53.6-15.63q15.19-1,30.44-1.24c28.66-.38,53.53,10.13,76.33,26.73,27.21,19.81,46.38,46.05,61.51,75.65C707.56-26.92,714-15.26,720.14-3.43c1.25,2.42,2.49,2.94,5.33,2.86,23.12-.65,46.27-1.68,69.37-1.1,16.93.43,32.77,6.59,48.32,13.28,30.39,13.09,56.73,31.92,80.66,54.57,17.83,16.87,35,34.23,49.11,54.43a300.42,300.42,0,0,1,36.52,70.76c8.87,24.57,18.79,48.74,27.85,73.24,11.28,30.49,20.16,61.74,24.45,94,3.47,26,5.52,52.27,7.23,78.48,1.41,21.59,2.14,43.28,1.77,64.9a144.88,144.88,0,0,0,10.7,56.48c8.06,20.27,16.94,40.24,31,57.31,1.25,1.52,2.41,3.13,3.94,5.11,10.92-10.83,24.31-16.78,38-21.93,20-7.53,40.79-11.5,62.17-7.89,14,2.36,25.3,10.59,36.17,19.31,13.34,10.7,25.31,22.66,34.14,37.41,5.62,9.39,10.78,19.06,16.08,28.64,3.21,5.79,6.06,11.8,9.53,17.43,3.14,5.11,2.51,9.12-.85,14.16-5.53,8.31-14.39,9.85-22.7,11.91-36.39,9-71.43,4.19-104.69-12.56-27.25-13.74-50.49-33-70-56.32-12.24-14.65-23.16-30.47-33.92-46.28-4.72-6.94-7.55-15.16-11.32-22.77a37.23,37.23,0,0,0-2.71-4.06c-.5-1.92-.92-3.86-1.52-5.74-3.84-12-7.63-24-11.65-36a19.1,19.1,0,0,0-4-7.15c-8-8.21-17.8-13.86-28.2-18.51V500.39l-13.58,5.39-2.94,1.41a57.8,57.8,0,0,1,5,4c6.15,6.24,12.31,12.47,18.18,19,.85.94.18,3.26.21,4.94-1.64-.14-3.61.25-4.86-.52-5.79-3.58-11.35-7.52-17-11.25a37.42,37.42,0,0,0-28.56-5.64c-12,2.28-21.62,9.13-30.91,16.44-7.18,5.65-13.93,11.85-21.1,17.53-1.57,1.24-4.11,1.27-6.2,1.86,0-2.11-.53-4.5.25-6.3,4.53-10.52,9.28-21,14.16-31.32,1.56-3.31,1.64-6-1.43-8.27-2-3-3.79-6.15-6.06-8.91-2.76-3.33-6-6.22-8.86-9.49a4.1,4.1,0,0,1-.8-3.54c.39-.82,2.23-1.53,3.28-1.36,10.81,1.72,21.63,3.44,32.37,5.57,7,1.4,10-.19,10.8-7.53.92-8.42,1.34-16.89,2.07-25.33,1.36-15.9,15.06-36.79,36.5-35.18a27.56,27.56,0,0,0,7.41-.88c5.94-1.23,9.45-5.68,9.19-11.67-1.65-37.16-9.55-73.14-20.56-108.52a209.15,209.15,0,0,0-8.38-23.05c-1.52,9.23-2.83,18.49-4.59,27.67-5.26,27.53-17.19,52.4-31.27,76.3-5.48,9.29-12,17.95-18.08,26.91-8.47,12.56-16.74,25.26-25.42,37.67-15.22,21.76-31.5,42.64-53.16,58.54a101.19,101.19,0,0,1-14.8,9.21c-8,4-16,1.27-18.57-7.21a110.87,110.87,0,0,1-5-27.32c-.78-17.12-1-34.33-.08-51.43,1.24-23.82,7.82-46.53,18-68.08,6.23-13.17,18-20,31.29-23.77a138.73,138.73,0,0,1,29.37-5.07c17.27-1.05,34.63-1.09,51.95-1.13,5.48,0,8.36-1.71,10-7.12a241.35,241.35,0,0,0,9.88-84.3C966.84,204.69,951,176.7,933,149.47c-15-22.77-35.49-40.52-55.5-58.64-19.8-17.93-42.77-30.45-67.77-39.42a74.29,74.29,0,0,0-27.41-4.56c-11.82.33-23.66.19-35.49.32-2.13,0-4.26.35-7.09.61,1.59,6.81,3.49,13.13,4.49,19.59,3.43,22,7.27,44,9.59,66.11,3,28.28,4.75,56.7,6.75,85.08.66,9.3.3,18.66.59,28,.06,1.86.45,4.17,1.58,5.49,13.06,15.12,19.28,33.32,23.15,52.37,4.33,21.32,4.31,43,4.17,64.69-.05,6.16,0,12.33,0,18.49-.12,15-8.71,22.47-23.35,18.82-9.57-2.39-19.27-5.81-27.74-10.77-12.45-7.29-24.06-16.08-35.63-24.77-10.25-7.7-17.57-18.12-24.25-29a26.05,26.05,0,0,0-2.82-3.25,22.86,22.86,0,0,0-1.44-4.65c-10.13-17.8-18.57-36.2-20.89-56.86a365.55,365.55,0,0,1-1.44-59.88,7.57,7.57,0,0,0-1.57-.61,183.5,183.5,0,0,0-69.87.57c-3.62.72-3.63,3.27-2.82,5.64a146.34,146.34,0,0,0,6.57,16.64c2.92,6,9,8.21,15.18,5.73a67,67,0,0,1,30.84-4.35c2.37.2,4.63,1.78,6.94,2.73-1.27,2.15-2.06,4.92-3.9,6.34-5.09,3.94-10.62,7.31-16,10.91l-15,7.59c3.28,1.67,6,2.87,8.57,4.41,13.72,8.31,24.44,19.41,30.87,34.24.75,1.76-.18,4.24-.32,6.39a31.24,31.24,0,0,1-5.39-2.41c-6.12-4.21-11.81-9.14-18.22-12.84-12.81-7.38-27-8.28-41.53-8.35-10.81,0-18,6.08-26.08,11.54,5.39,5.51,10.51,10.48,15.27,15.77,1.27,1.42,1.43,3.84,2.11,5.8-1.94-.3-4-.23-5.8-1-5.82-2.42-11.44-5.3-17.3-7.63-2.12-.84-4.68-3.08-7,.48-2,3.08-2.91,5.51-.1,8.8a37.29,37.29,0,0,1,5.83,9.82c1.2,2.92,5.37,6.42,1.61,9.11-1.71,1.21-6.37-.89-9.27-2.34-12.77-6.4-25-14-38.16-19.5-20-8.36-40.43-10.82-60,2.13-1,.67-2.89,0-4.37,0,.38-1.44.3-3.28,1.19-4.25,9.36-10.23,20.65-17.17,34.51-19.48,1.84-.31,3.68-.58,6.65-1-8.56-5.27-15.94-9.68-25.12-5.06a13.91,13.91,0,0,1-3.34.77c.53-1.81,1.07-3.63,1.77-6-5.07-.38-9.56-.51-14-1.16-1.44-.21-2.69-1.76-4-2.69,1.24-.91,2.36-2.34,3.73-2.63a93.74,93.74,0,0,1,14.27-2.26c3.72-.2,5.51-1.61,6.89-5,14.4-35.6,32.08-69.32,54.39-100.81C541.5,129.67,573.75,87.44,614.8,52.64,632,38.05,649.42,23.93,670.47,15.11A24.26,24.26,0,0,0,673.71,13C664-4.25,655-21.5,644.86-38.1a121.71,121.71,0,0,0-52.12-47.41c-9.14-4.36-18.86-7.26-29.9-6.27.35,5.09.93,9.84.95,14.6.12,23.66.42,47.33,0,71-.34,19.8-6.1,38.3-15.39,55.76-14.49,27.21-36.88,46.93-61.07,65-7.5,5.59-11.08,5.27-17.86-1-10.09,4.69-17.14,1.24-18.33-9.85-2.57-24-2.94-48.18,4.36-71.3,13.85-43.86,40.64-76.68,84.79-93.43,1.15-.44,2.74-1.87,2.74-2.84,0-8.92-.28-17.85-.5-27.25-14,.4-26.69,2.16-37.77,9.21C492.7-74.31,481-66.07,469.53-57.46c-16.21,12.22-30.66,26.15-39.85,44.75-4.57,9.24-9.65,18.24-14.1,27.54C403.52,40,390.65,64.92,380,90.71a350.41,350.41,0,0,0-27,136.66c.4,107.15.14,214.3.14,321.45v2a22.27,22.27,0,0,0,2.82-6.54c9.7-35.09,18.91-70.33,29.25-105.23,5.47-18.46,12.89-36.33,19.43-54.47,6.92,6.41,13.37,13.44,20.89,19,5.9,4.38,13.11,7,19.74,10.38-5.41,16.43-11.35,32.7-16.09,49.31-7.81,27.33-15,54.84-22.16,82.36-7.35,28.31-15.33,56.51-21.16,85.14-4.23,20.78-5.54,42.17-7.88,63.31a183.7,183.7,0,0,0-.92,27.6c1.39-1.75,2.84-3.46,4.15-5.27,11.58-16,26.71-28.33,42.6-39.69,31.32-22.41,64.49-41.06,102.07-51.24,31.82-8.63,64.2-11.38,96.4-5.94,18.23,3.08,35.55,11.75,53.17,18.2,17,6.22,29.94,17.69,40.45,32.17,4.13,5.68,4.77,11.15.4,16.51-18.95,23.3-39.27,45.38-68.66,55.33-12.45,4.21-25.88,6.38-39,7.47-16.87,1.39-34,2-50.83.71C528.82,747.7,501.91,737.7,477,723c-12.7-7.49-24.43-16.65-36.56-25.1-1.75-1.22-3.35-2.66-5.1-4.07A179.42,179.42,0,0,0,390,738.75c-13.79,19.75-14,19.59-14,43.46,0,27-.55,54,.21,81,.95,34.28,3,68.52,4.56,102.78q.94,20.44,1.93,40.91c.79,15.93,1.63,31.85,2.48,48.4H312.71c1.13-7.53,2.49-14.83,3.26-22.19,1.17-11.06,2.58-22.15,2.72-33.25q.62-48.74.16-97.48c0-5-1.73-10.17-3.54-14.93-11.52-30.32-23.91-60.32-34.82-90.86-12.68-35.49-33.38-66.52-52.12-98.73-16.54-28.43-35.74-55-55.12-81.46-.69-1-2-2.16-3-2.07-11.37,1.13-21.09-3.91-31.07-8-1.51-.62-3.09-1-5.37-1.81.57,7.82,2.62,14.46,7.74,19.43,1.51,1.46,5.64,1.3,8.12.49,4.69-1.53,9-4.34,13.61-6,1.63-.58,3.88.59,5.85,1-.38,2-.13,4.5-1.26,5.87-4,4.87-8.5,9.35-12.78,14-.89,1-1.65,2-3,3.67l8.78,5.65c8.91,9.57,17.88,19.09,26.65,28.79,1.23,1.36,1.45,3.63,2.14,5.48-2.11-.06-4.44.42-6.31-.29-7.29-2.76-14.22-6.77-21.7-8.7-12.1-3.11-24.38-4.19-35,4.91-11.1,9.47-21.13,19.77-27.23,33.34-.52,1.15-2,1.87-3,2.8-.83-1.27-2.46-2.62-2.34-3.79.75-7,.8-14.42,3.15-21,3.89-10.83,9.34-21.1,14.71-32.86-4.4,1.85-8.25,2.91-11.51,4.93C90.08,668.59,80,675.4,69.76,681.89c-1.18.76-3,.54-4.5.77-.23-1.51-1.14-3.38-.57-4.49,2.26-4.39,4.9-8.6,7.57-12.77,1.59-2.49,3.51-4.76,5.28-7.14L82,653l1-1a2.25,2.25,0,0,0,.36-.24c0-.05,0-.17,0-.26L83,652c-.34.34-.67.68-1,1l-7,6,.09-.09L74,660l.09,0-2,1q-6.41,4.9-12.82,9.8l-1.1-.41-.09.75.11-.06A17.2,17.2,0,0,0,54,672.17C32.8,684.43,9.45,690.24-14.28,695c-18.35,3.69-36.81,5.9-55.54,4.89-7-.38-14.12-.54-20.77-2.36-5.2-1.42-10.17-4.71-14.45-8.16-4-3.24-3-7.93-1-12.38,5.3-11.7,13.15-21.55,21.64-31,6.22-6.93,12.33-14,18.49-20.93,5.28-4.82,10.47-9.73,15.84-14.43,20.53-18,44.06-30.5,70.76-35.91,11.93-2.42,24.46-1.91,36.71-2.74l62,4.88c-.82-8.5-.67-17.81-2.82-26.56-2.88-11.68-5.5-24.21-11.79-34.12C77.52,473.1,44.93,433.85,12.52,394.55c-10.91-13.23-22.38-26-33.63-38.95-4.28-4.93-10-5.43-13.06-.55-2.58,4.15-5.08,8.92-5.65,13.64-2.69,22.48-4.43,45.05-2.16,67.71,1.24,12.41,2.12,24.89,7,36.6,2.7,6.5,5,7.9,11.9,6.48,4.86-1,9.55-2.78,14.39-3.91,1.35-.32,3,.42,4.43.67a15.5,15.5,0,0,1-1.37,3.88c-1.68,2.45-4,4.51-5.41,7.08-2.27,4.13-1.23,5.68,3.14,7.32,6,2.25,11.9,4.88,17.84,7.35L12.08,503l-.07-.09a24.8,24.8,0,0,0,1.84,2.56c3.84,4.14,8,8,11.45,12.45,1.13,1.44.63,4.17.87,6.31-2-.48-4.37-.42-5.93-1.53C5.62,512.3-11.08,510.34-29.49,509.59c1.54,1.7,2.12,2.44,2.79,3.08,11.31,10.83,15.29,24.18,13.42,39.44-.21,1.71-1.58,3.28-2.41,4.92-1.46-1.15-3.45-2-4.29-3.49-7.2-12.7-17.44-22.78-28.72-31.53-17.92-13.91-29.52-13.8-45.74-4-4.6,2.79-8.21,7.17-12.44,10.63-1.28,1-3.09,1.46-4.66,2.16l-1.44-4.42c2.89-4.81,5.14-10.19,8.83-14.28,4.51-5,10.22-8.87,16.33-14-6.39-.73-12.32-1.28-18.21-2.14-3.15-.47-7.85,1.66-8.61-3.16-.18-1.14,4.71-4,7.56-4.51A64.27,64.27,0,0,1-90.28,487c10.22.74,16.71-4.28,21.76-12.19,9-14.08,13.27-29.37,13.61-46.19.27-13.43,3.14-26.81,3.46-40.24.46-19.53,3.08-39.22-3.25-58.5-2.59-7.9-6.7-12.42-15.24-14.21-18.33-3.84-36.79-5.27-55.91-6-.88,5.16-1.25,10-2.57,14.55-3,10.19-5.6,20.57-9.76,30.28-10.4,24.23-23.88,46.63-44.52,63.67-8.81,7.27-18,14.86-28.22,19.42-9.76,4.34-21.13,6.33-31.92,6.88-23.59,1.21-47.28,1.28-70.55-4.35a118.65,118.65,0,0,1-33.74-13.36,15.11,15.11,0,0,0-6.48-1.84c-4.32-.33-7.76-1.84-9.8-5.78-2.17-4.18-1.39-8.09,1.51-11.6,16.74-20.23,33.16-40.39,54.18-57a338.34,338.34,0,0,1,93.49-52.72,147.21,147.21,0,0,1,50.88-8.92c28-.05,56-.51,83.73,4a28.74,28.74,0,0,0,3.83,0c-5.39-6-10.31-11.55-15.28-17-24-26.48-49.8-51.31-78.53-72.38-29.41-21.55-60.9-40.3-97.1-48.82a154,154,0,0,0-25.12-3.56,257.64,257.64,0,0,0-30.44-.36c-25.47,1.35-47.92,11-67.17,27.37a191.77,191.77,0,0,0-55,76.86c-8.91,22.78-13.43,46.72-14.51,71.09-1.11,24.78-1.31,49.62-1.34,74.44-.06,46.81,1,93.65.1,140.44-.32,16.83,4.87,32.33,6.1,48.69,6.73.33,13.35-.59,19.17,1.16,16.36,4.94,32.67,10.32,48.51,16.72,22.35,9,39.68,24.73,53.63,44.21,7,9.8,8.9,21.27,10.8,32.85,3.93,23.84.83,47.45-1.45,71.13-.67,6.94-.29,14-.47,21-.28,10.11-8.63,15-17.24,9.7a189.76,189.76,0,0,1-18.13-13.25c-8.83-7-17.07-14.83-26.21-21.41C-400,741.26-410,727-420,712.63c-6.28-9-11.64-18.62-17.46-27.93-1-1.67-2.33-3.2-3.51-4.79l-15-28.61c-1.82-11.89-6.43-16-18.08-16.31-1.16,0-2.32,0-3.48.07h-34.7c12.68,8.19,17.23,20.26,21.8,32.26a13,13,0,0,1,.58,5.9,5.07,5.07,0,0,1-2.12,3.43c-.6.35-2.38-.68-3.24-1.5-4-3.81-7.9-7.65-11.65-11.67C-520.4,649-537,644.3-556.32,647.41c-11.49,1.85-22.3,5.18-31.88,12.11-1.36,1-3.91.31-5.91.4,0-1.67-.51-3.62.17-5,1.92-3.85,3.85-7.87,6.65-11.07C-582.86,638.83-577.73,634.39-572.89,629.7ZM85,649l1-1a8,8,0,0,0,2.14-1,44.83,44.83,0,0,1,20.31-11,12.38,12.38,0,0,0,5.93-4.13c7.61-9.08,5.31-20.09,5.37-30.57,0-.72-2.18-2-3.35-2a4.38,4.38,0,0,0-3.13,2.19c-2.27,4.41-3.86,9.21-6.41,13.45C100.1,626,93,637,86,648l-1,1a1.85,1.85,0,0,0-.37.25c-.05.06,0,.18,0,.28ZM517.07,279.38a48.32,48.32,0,0,0,2.3,7c2.06,4.17,8.59,4.85,11.84,1.72,5.82-5.59,11.85-10.95,18.29-16.87-.53-4.72-5.1-4.5-9-5.21-4.89-1.46-9.76-2.95-14.66-4.35-.75-.22-2-.41-2.34,0-2.71,3.34-5.8,6.55-7.61,10.36C515,273.86,516.59,276.89,517.07,279.38ZM-468.09,621.1l.53.58-.18-.95-11.84-54.87c-11.93,2.51-20-3.63-27.22-12-4.87-5.61-11.28-4.53-14.13,2.32a88.36,88.36,0,0,0-3.74,12.9c-3.13,12.66-4,25.25,1.24,37.66,2.77,6.52,4.63,7.87,11.49,7.9C-497,614.73-481.88,613.32-468.09,621.1ZM691.6,59.48C679.67,65,668.61,71,659.41,79.41q-29.45,27-57.95,55a64.77,64.77,0,0,0-19,36.56c-1.38,8.43-3.17,16.79-4.85,25.61,23.59-3.71,46.08-5,68.68-1.69,22.44,3.26,43.45,11.3,65.17,20.31C707.12,162.4,705.84,110.44,691.6,59.48Zm328.46,427.27c0-14.4.17-29.18-.17-43.94,0-2.24-1.92-5.67-3.81-6.45-11.82-4.87-22.34-5.36-30.48,7.28-7,10.83-8.27,22.68-7.48,34.95.5,7.66,7.69,14.2,13.64,13.17C1001.21,490.11,1010.65,488.42,1020.06,486.75ZM194.26,31.67c6.53,2.74,10.3,1.9,13.8-2.5,1.24-1.55,2.16-3.35,3.25-5C219.05,12.34,227.17.74,234.4-11.37a108.33,108.33,0,0,0,10-22.09c2.25-6.95-1.82-16.32-7.57-17.81-8.23-2.15-16.8-3-26.44-4.57C216.64-23.72,219,6.41,194.26,31.67ZM533.63,248.84l.51,1.29c7.39-.41,14.78-.73,22.15-1.31a5.49,5.49,0,0,0,3.63-2.08c4.72-7.05,6.45-15,7.13-24.08C553.2,228.85,543.32,238.73,533.63,248.84ZM132.07,552.66l-2.21.47c0,8.61,0,17.22.08,25.84a3.52,3.52,0,0,0,1.56,2.7c8,3.09,16.05,6,24.77,9.19a36.57,36.57,0,0,0-1.69-3.58Q143.35,570,132.07,552.66ZM562.86,201.54a39.82,39.82,0,0,1-2-4c-1.17-3.23-3.87-3.17-5.43-1.41-3.87,4.37-7.12,9.28-10.61,14l.84.49Z" transform="translate(689.44 261.51)"/><path class="cls-2" d="M653.93,277.15c2.32,20.66,10.76,39.06,20.89,56.86a22.86,22.86,0,0,1,1.44,4.65c-6,17.74-18.77,29.56-34.64,38.25-22.26,12.21-46.3,15.77-71.4,13.62a8,8,0,0,0-5.65,1.59c-18.17,17.26-40.32,25.27-64.72,27.81a120.94,120.94,0,0,1-52.63-5.74,9.08,9.08,0,0,0-2-.21c-6.62-3.39-13.83-6-19.73-10.38-7.52-5.59-14-12.62-20.89-19l-2.32-4.39c-7.74-14.66-9-29.66-2.49-45.1,5.42-12.89,14.66-22.54,26.22-29.88,6.82-4.32,14.31-7.6,21.49-11.35a13.91,13.91,0,0,0,3.34-.77c9.18-4.62,16.56-.21,25.12,5.06-3,.46-4.81.73-6.65,1-13.86,2.31-25.15,9.25-34.51,19.48-.89,1-.81,2.81-1.19,4.25,1.48,0,3.36.67,4.37,0,19.6-12.95,40-10.49,60-2.13,13.14,5.49,25.39,13.1,38.16,19.5,2.9,1.45,7.56,3.55,9.27,2.34,3.76-2.69-.41-6.19-1.61-9.11A37.29,37.29,0,0,0,538,323.7c-2.81-3.29-1.88-5.72.1-8.8,2.28-3.56,4.84-1.32,7-.48,5.86,2.33,11.48,5.21,17.3,7.63,1.76.73,3.86.66,5.8,1-.68-2-.84-4.38-2.11-5.8-4.76-5.29-9.88-10.26-15.27-15.77,8-5.46,15.27-11.59,26.08-11.54,14.51.07,28.72,1,41.53,8.35,6.41,3.7,12.1,8.63,18.22,12.84A31.24,31.24,0,0,0,642,313.5c.14-2.15,1.07-4.63.32-6.39-6.43-14.83-17.15-25.93-30.87-34.24-2.54-1.54-5.29-2.74-8.57-4.41l15-7.59A111.6,111.6,0,0,1,653.93,277.15Z" transform="translate(689.44 261.51)"/><path class="cls-2" d="M932.19,507.65c3.07,2.31,3,5,1.43,8.27-4.88,10.36-9.63,20.8-14.16,31.32-.78,1.8-.2,4.19-.25,6.3,2.09-.59,4.63-.62,6.2-1.86,7.17-5.68,13.92-11.88,21.1-17.53,9.29-7.31,18.88-14.16,30.91-16.44a37.42,37.42,0,0,1,28.56,5.64c5.7,3.73,11.26,7.67,17,11.25,1.25.77,3.22.38,4.86.52,0-1.68.64-4-.21-4.94-5.87-6.49-12-12.72-18.18-19a57.8,57.8,0,0,0-5-4l2.94-1.41L1021,510.5c10.4,4.65,20.18,10.3,28.2,18.51a19.1,19.1,0,0,1,4,7.15c4,12,7.81,24,11.65,36,.6,1.88,1,3.82,1.52,5.74-4.26,20.54-16.92,35.09-34.56,44.85-38.37,21.23-78,22.43-117.86,4.15a80.67,80.67,0,0,1-21.51-15.11c-24.12-23.07-24.45-55.37-1.3-79.5C902.54,520.4,916.54,512.6,932.19,507.65Z" transform="translate(689.44 261.51)"/><path class="cls-2" d="M298,77c3.31,7.67,7.65,15.08,9.7,23.08,3.14,12.22-.11,23.92-6.48,34.71-2.88,3.82-5.5,7.85-8.67,11.39-7.82,8.74-17.74,14.62-28.1,19.8-16.93-2-32.65,3-48.29,8.37-2,.7-4.13,1.2-6.2,1.8-16.2-1-31.95-3.95-46.67-11.16-11-5.41-20.71-12.51-28.29-22.34-16.3-21.13-14.44-48.89,4.8-69,11.79-12.33,26.31-20.05,42.51-24.87,1,0,2,0,3,.12a1.71,1.71,0,0,1,.66.23c-3,5.72-6.6,11.25-9,17.24-5,12.19-3.85,25.17-3.73,38,0,1,1.41,1.95,2.16,2.92,1.17-1,2.76-1.7,3.43-2.94,4.83-8.89,9.25-18,14.28-26.77,2.45-4.29,5.81-8.09,9-11.94,10.65-13,24.87-12.23,39.44-10.1,10.22,1.49,18.7,6.61,26.74,12.69.92.7,1.86,1.78,2.86,1.87a19.27,19.27,0,0,0,4.69-.72c-.26-1.37-.08-3.1-.86-4C272.15,62,269,59,266.13,55.77A29.4,29.4,0,0,1,264,52.85a41,41,0,0,1,4.66,1.54A83.33,83.33,0,0,1,298,77Z" transform="translate(689.44 261.51)"/><path class="cls-2" d="M-456,651.3l15,28.61c3.18,28-10.52,47.31-33.25,60.35-37,21.24-75.59,22.12-114.36,4.54a68,68,0,0,1-30.53-26.46c-13.78-22.48-9.57-48.57,10.82-67.88A92,92,0,0,1-572.9,629.7c-4.83,4.69-10,9.13-14.39,14.18-2.8,3.2-4.73,7.22-6.65,11.07-.68,1.35-.15,3.3-.17,5,2-.09,4.55.59,5.91-.4,9.58-6.93,20.39-10.26,31.88-12.11,19.27-3.11,35.92,1.54,49.45,16.07,3.75,4,7.69,7.86,11.65,11.67.86.82,2.64,1.85,3.24,1.5a5.07,5.07,0,0,0,2.12-3.43,13,13,0,0,0-.58-5.9c-4.57-12-9.12-24.07-21.8-32.26h34.7Z" transform="translate(689.44 261.51)"/><path class="cls-2" d="M77.54,658.26c-1.77,2.38-3.69,4.65-5.28,7.14-2.67,4.17-5.31,8.38-7.57,12.77-.57,1.11.34,3,.57,4.49,1.52-.23,3.32,0,4.5-.77C80,675.4,90.08,668.59,100.4,662.2c3.26-2,7.11-3.08,11.51-4.93-5.37,11.76-10.82,22-14.71,32.86-2.35,6.53-2.4,13.92-3.15,21-.12,1.17,1.51,2.52,2.34,3.79,1-.93,2.53-1.65,3-2.8,6.1-13.57,16.13-23.87,27.23-33.34,10.67-9.1,23-8,35.05-4.91,7.48,1.93,14.41,5.94,21.7,8.7,1.87.71,4.2.23,6.31.29-.69-1.85-.91-4.12-2.14-5.48-8.77-9.7-17.74-19.22-26.65-28.79,15.41,3.65,29.63,9.78,41.75,20.21,26,22.37,27.52,55.83,3.45,80.28-14.49,14.74-32.66,22.6-52.64,26.46-25.85,5-51.18,3.1-74.95-8.66a90.25,90.25,0,0,1-24.21-17.15c-21.73-22.2-21.05-52.63.63-75,1.13-1.16,2.13-2.46,3.19-3.7l-.11.06,1.19-.34q6.42-4.89,12.82-9.8l2-1L74,660l1.13-1-.09.09Z" transform="translate(689.44 261.51)"/><path class="cls-2" d="M57.42,572c-12.25.83-24.78.32-36.71,2.74C-6,580.14-29.52,592.65-50,610.64c-5.37,4.7-10.56,9.61-15.84,14.43C-79.58,621-92.75,615.88-104.23,607c-23.2-18-30.17-45.84-16.91-69.3,2.26-4,5.42-7.5,8.16-11.23l1.44,4.42c1.57-.7,3.38-1.11,4.66-2.16,4.23-3.46,7.84-7.84,12.44-10.63,16.22-9.85,27.82-10,45.74,4,11.28,8.75,21.52,18.83,28.72,31.53.84,1.49,2.83,2.34,4.29,3.49.83-1.64,2.2-3.21,2.41-4.92,1.87-15.26-2.11-28.61-13.42-39.44-.67-.64-1.25-1.38-2.79-3.08,18.41.75,35.11,2.71,49.73,13.09,1.56,1.11,3.93,1.05,5.93,1.53-.24-2.14.26-4.87-.87-6.31-3.49-4.41-7.61-8.31-11.45-12.45A24.8,24.8,0,0,1,12,502.89a72.4,72.4,0,0,1,31.4,20.16C56.39,536.9,61.73,553.11,57.42,572Z" transform="translate(689.44 261.51)"/><path class="cls-2" d="M540.48,266c3.92.71,8.49.49,9,5.21-6.44,5.92-12.47,11.28-18.29,16.87-3.25,3.13-9.78,2.45-11.84-1.72a48.32,48.32,0,0,1-2.3-7Z" transform="translate(689.44 261.51)"/><path class="cls-2" d="M261.93,51.57,264.08,53Z" transform="translate(689.44 261.51)"/><path class="cls-2" d="M9.91,501.87,12.08,503Z" transform="translate(689.44 261.51)"/></svg>