<svg id="Layer_1" data-name="Layer 1" xmlns="http://www.w3.org/2000/svg" viewBox="0 0 462.53 657.84"><defs><style>.cls-1{fill:#8fc06d;}.cls-2{fill:#a65b83;}</style></defs><title>turnip</title><path class="cls-1" d="M240.8,488.73c-2.17,1.79-4.33,3.6-6.53,5.37a5.24,5.24,0,0,1-1.71.95c-9.19,2.7-18.23,6.34-27.62,7.81-19.33,3.05-37.91-.12-54.55-11a191.24,191.24,0,0,1-21.51-16.28c-5-4.4-9-9.93-13.53-14.94-1.47-1.63-3-3.17-4.52-4.8-5.3-5.87-11-11.44-15.78-17.7-8-10.51-8.52-22.22-4-34.36a27.82,27.82,0,0,1,10.34-13.09c5.38-3.79,10.41-8.15,16.71-10.48a75.42,75.42,0,0,1,16.23-3.58c8.33-1.13,16.56-2.92,24.86-4.22,2.4-.38,4.91-.06,7.39-.06-2.58-6.08-5.09-12.16-7.74-18.17-5.54-12.59-8.36-25.83-10.22-39.39a517.86,517.86,0,0,1-4.41-53.62c-.44-13.85-1-27.69-1.18-41.54-.1-7.73,1.62-15.27,4.11-22.59,3.12-9.19,9.61-14.6,19-16.8,3.88-.91,7.69-.76,11.66-.64,6.28.18,12.16,1.74,18.11,3.15,9.2,2.18,17.54,6.48,25.82,10.91,4.25,2.28,8.72,4.16,13.05,6.29,3.74,1.85,7.42,3.81,11.13,5.72.59.3,1.15.65,1.75.93,2.3,1.06,2.3,1.05,2.3-1.49,0-7.92.2-15.84-.09-23.76a113.2,113.2,0,0,1,1.23-22.52c.63-3.88.16-7.93.63-11.84.86-7.18,1.92-14.33,3.13-21.45a263.72,263.72,0,0,1,10-39.29c3.75-11.24,10-20.93,17.63-29.87a6.14,6.14,0,0,1,1.5-1.28c7.84-4.8,15.93-8.82,25.27-10a85.83,85.83,0,0,1,23,0,18.61,18.61,0,0,1,4.26,1c9.54,3.8,18.54,8.47,25.45,16.35,2,2.31,3.74,4.9,5.89,7.06a102.47,102.47,0,0,1,15.76,21c3.41,5.8,6.39,11.85,9.53,17.81,4.68,8.87,9.36,17.73,14,26.64,2.21,4.29,4.32,8.64,6.29,13,2.12,4.74,4,9.59,6,14.35,1,2.28,2.14,4.48,3.25,6.78,2.71-2.1,5.35-4.28,8.13-6.25,3.34-2.35,6.77-4.57,10.21-6.76,5.62-3.58,11.5-6.79,16.87-10.71,9.72-7.08,20.63-8.94,32.14-7.71,8.9.95,15.62,8.57,17.83,18.3,2.53,11.12,5.65,22.11,8.07,33.25A191.83,191.83,0,0,1,518.8,209c.58,5.31.72,10.67,1.09,16a7.17,7.17,0,0,0,.52,2.35c3.73,8.52,4.38,17.58,4.49,26.67.05,4.3-.82,8.59-1.17,12.9-.45,5.47-.88,10.95-1.18,16.43-.56,10.29-3.38,20.18-5,30.27-1.94,12-7.21,22.67-11.65,33.71a5.36,5.36,0,0,0-.59,1.63c0,.39.45,1.1.75,1.13,11.49,1.08,21.86,5.28,31.52,11.39,4,2.51,7.14,5.73,8.65,10.43,1,3.18,2.92,6.1,3.78,9.32,1.64,6.11.36,12.12-2,17.81-2.09,5.06-4.5,10-7,14.86-3,5.75-6.15,11.46-9.52,17-3.88,6.38-9.31,11.48-14.66,16.6-6,5.72-12,11.41-18.19,16.89-9.09,8-20.08,11.88-31.85,13.74-5.42.85-10.88,1.88-16.33,1.9A46.7,46.7,0,0,1,436,478c-6.29-2.06-12.24-5.18-18.29-7.94a10.65,10.65,0,0,1-2.27-2,6.73,6.73,0,0,1,.43-1c5.08-8,10.63-15.59,17.81-21.89,8.31-7.29,16.39-14.83,24.8-22A147.21,147.21,0,0,1,487,403.92c6.72-3.43,13.46-6.82,20.15-10.3,2.37-1.23,4.43-3.2,7.46-2.6.3.07.93-.45,1.08-.83.91-2.23-1-6.43-3.31-7.05a52.26,52.26,0,0,0-7.27-1.33,26.13,26.13,0,0,0-12.66,2c-3,1.2-6.15,2-9.08,3.27-7.22,3.19-14.73,6-21.41,10.05-8.4,5.14-16.17,11.34-24.08,17.25-4.09,3.05-8.65,5.91-9,11.87a1.88,1.88,0,0,1-.25.61c-2.17,4.88-4.27,9.79-6.52,14.63a87.37,87.37,0,0,1-4.24,8.15c-6.87,11.49-16.39,20.81-25.63,30.26-6.8,6.94-14.27,13.24-21.72,19.5A35.93,35.93,0,0,1,360,505.67c-4.2,1.54-8.83,1.89-13.28,2.69-2.59.47-3.49-.27-3.45-2.82.27-14.94.41-29.89.92-44.82.22-6.7,1.2-13.37,1.82-20.06.69-7.49,1.72-15,1.94-22.46a97.38,97.38,0,0,1,2.28-19.32c2.3-9.88,4-19.9,6.27-29.78,2-8.46,4.56-16.78,6.76-25.19,2.06-7.84,3.75-15.79,6-23.56,2.84-9.68,5.69-19.4,9.3-28.81,5.34-13.94,11.43-27.58,17-41.42,2.07-5.11,4.21-10.3.51-15.82-1.8-2.69-3.73-3.85-6-1.91-4.35,3.79-8.86,7.52-12.56,11.9a207.34,207.34,0,0,0-13.19,18.08c-4.11,6.13-8.08,12.39-11.65,18.85-3,5.37-5.3,11.09-7.82,16.7q-7.74,17.24-15.36,34.5c-5.54,12.63-7.47,26.26-10.46,39.57-1.9,8.45-2.66,17.16-4.33,25.68-2.38,12.18-4.89,24.34-5.39,36.79-.47,11.77-.79,23.55-1.42,35.31-.31,5.94-1.15,11.85-1.76,17.88-4.29-2.37-6.39-6.44-9-10-5.82-7.88-10.6-16.38-12.72-26.05-1.52-6.9-2.9-13.87-3.75-20.89-1.42-11.66-2.4-23.37-3.51-35.07-.42-4.44-.87-8.88-.93-13.33-.09-7.16,0-14.33.28-21.48.21-4.87,1-9.72,1.53-14.58a7.81,7.81,0,0,0-1.36-4.92c-1.91-3.35-3.34-7-5.25-10.34-4.2-7.38-8.65-14.6-12.83-22-3.16-5.6-5.65-11.63-9.15-17-7.55-11.58-15.29-23.09-26.34-31.8-4.13-3.25-8.31-6.45-12.65-9.41-2.83-1.93-5.77-1-8.24,1.91a6.38,6.38,0,0,0,.23,7.91c3.4,4,6.95,7.91,10.16,12.07,3.66,4.74,7.19,9.6,10.44,14.62,4.25,6.58,8.19,13.36,12.23,20.07a32.74,32.74,0,0,1,2.26,4.26c4.32,10.4,8.66,20.8,12.87,31.25,5.38,13.36,10.61,26.77,14.23,40.74.73,2.83,1.36,5.68,1.93,8.55q3.51,17.6,6.95,35.2,2.33,11.91,4.6,23.83a20,20,0,0,1-1.71,2.74q-4.45,5.1-9,10.07c-.91,1-2,1.84-3,2.75a21.72,21.72,0,0,1-3.22-2.61c-6.21-7.2-14.18-12.22-21.84-17.56-9.79-6.82-21.38-10.12-32-15.43-3.63-1.83-7.68-2.79-11.53-4.17s-7.48-2.89-11.3-4c-2.5-.75-5.22-.72-7.75-1.38-7.9-2.09-15.8-4.22-23.64-6.55-9-2.68-18-5.66-27-8.35-3.7-1.1-6.65-.32-7.73,1.86-2.14,4.3-1.27,8.85,4.32,10.21,4.61,1.12,9.41,1.64,13.85,3.2q13.67,4.8,27,10.49c19.28,8.21,37,19.11,54,31.3,4.3,3.08,8.53,6.13,11.74,10.44C233.13,479.14,237,483.9,240.8,488.73ZM324.14,238.2c1-.93,1.57-1.46,2.12-2,2.13-2.22,4.15-4.56,6.39-6.66,4.22-3.95,8.53-7.81,12.88-11.62a3.52,3.52,0,0,0,1.22-3.5c-1.3-8.74-2.56-17.48-3.89-26.2q-3.71-24.13-7.47-48.24a262.44,262.44,0,0,0-11.87-46.67,106.1,106.1,0,0,1-3.13-11.83c-.74-3.24-2.55-4.91-6-5-2.41-.09-5.7,2.33-5.95,4.91a76,76,0,0,0-.33,12c.37,5.66,1.16,11.3,1.92,16.92,1.17,8.61,2.48,17.19,3.72,25.79,1.12,7.72,2.31,15.44,3.31,23.19,1,8.25,1.93,16.52,2.86,24.79.43,3.84.76,7.7,1.21,11.54.58,4.93,1.5,9.84,1.8,14.78.53,8.54.69,17.11,1,25.66C324,236.53,324.06,237.09,324.14,238.2Zm116.75,8.29c1.41-2.81,2.88-5.83,4.42-8.81q4.45-8.58,9-17.13a12.33,12.33,0,0,0,.38-10.4c-.78-2.17-2.54-2.9-4.56-1.83a11.29,11.29,0,0,0-3.29,2.5c-4.12,4.85-8.07,9.84-12.21,14.67a2.81,2.81,0,0,0-.55,3.32C436.38,234.73,438.65,240.67,440.89,246.49Z" transform="translate(-88.21 -44.33)"/><path class="cls-2" d="M240.8,488.73c-3.79-4.83-7.67-9.59-11.33-14.52-3.21-4.31-7.44-7.36-11.74-10.44-17-12.19-34.76-23.09-54-31.3q-13.32-5.67-27-10.49c-4.44-1.56-9.24-2.08-13.85-3.2-5.59-1.36-6.46-5.91-4.32-10.21,1.08-2.18,4-3,7.73-1.86,9,2.69,18,5.67,27,8.35,7.84,2.33,15.74,4.46,23.64,6.55,2.53.66,5.25.63,7.75,1.38,3.82,1.14,7.53,2.68,11.3,4s7.9,2.34,11.53,4.17c10.58,5.31,22.17,8.61,32,15.43,7.66,5.34,15.63,10.36,21.84,17.56a21.72,21.72,0,0,0,3.22,2.61l20.19,24.61c-.71-5-1.36-10.06-2.18-15.11-1.36-8.36-2.85-16.71-4.28-25.06q-2.3-11.91-4.6-23.83-3.45-17.61-6.95-35.2c-.57-2.87-1.2-5.72-1.93-8.55-3.62-14-8.85-27.38-14.23-40.74-4.21-10.45-8.55-20.85-12.87-31.25a32.74,32.74,0,0,0-2.26-4.26c-4-6.71-8-13.49-12.23-20.07-3.25-5-6.78-9.88-10.44-14.62-3.21-4.16-6.76-8-10.16-12.07a6.38,6.38,0,0,1-.23-7.91c2.47-3,5.41-3.84,8.24-1.91,4.34,3,8.52,6.16,12.65,9.41,11.05,8.71,18.79,20.22,26.34,31.8,3.5,5.37,6,11.4,9.15,17,4.18,7.39,8.63,14.61,12.83,22,1.91,3.36,3.34,7,5.25,10.34a7.81,7.81,0,0,1,1.36,4.92c-.55,4.86-1.32,9.71-1.53,14.58-.32,7.15-.37,14.32-.28,21.48.06,4.45.51,8.89.93,13.33,1.11,11.7,2.09,23.41,3.51,35.07.85,7,2.23,14,3.75,20.89,2.12,9.67,6.9,18.17,12.72,26.05,2.62,3.53,4.72,7.6,9,10,.61-6,1.45-11.94,1.76-17.88.63-11.76,1-23.54,1.42-35.31.5-12.45,3-24.61,5.39-36.79,1.67-8.52,2.43-17.23,4.33-25.68,3-13.31,4.92-26.94,10.46-39.57q7.59-17.3,15.36-34.5c2.52-5.61,4.86-11.33,7.82-16.7,3.57-6.46,7.54-12.72,11.65-18.85a207.34,207.34,0,0,1,13.19-18.08c3.7-4.38,8.21-8.11,12.56-11.9,2.23-1.94,4.16-.78,6,1.91,3.7,5.52,1.56,10.71-.51,15.82-5.59,13.84-11.68,27.48-17,41.42-3.61,9.41-6.46,19.13-9.3,28.81-2.28,7.77-4,15.72-6,23.56-2.2,8.41-4.77,16.73-6.76,25.19-2.31,9.88-4,19.9-6.27,29.78A97.38,97.38,0,0,0,348,418.2c-.22,7.5-1.25,15-1.94,22.46-.62,6.69-1.6,13.36-1.82,20.06-.51,14.93-.65,29.88-.92,44.82,0,2.55.86,3.29,3.45,2.82,4.45-.8,9.08-1.15,13.28-2.69a35.93,35.93,0,0,0,10.46-6.28c7.45-6.26,14.92-12.56,21.72-19.5,9.24-9.45,18.76-18.77,25.63-30.26a87.37,87.37,0,0,0,4.24-8.15c2.25-4.84,4.35-9.75,6.52-14.63a1.88,1.88,0,0,0,.25-.61c.34-6,4.9-8.82,9-11.87,7.91-5.91,15.68-12.11,24.08-17.25,6.68-4.09,14.19-6.86,21.41-10.05,2.93-1.3,6.1-2.07,9.08-3.27a26.13,26.13,0,0,1,12.66-2,52.26,52.26,0,0,1,7.27,1.33c2.34.62,4.22,4.82,3.31,7.05-.15.38-.78.9-1.08.83-3-.6-5.09,1.37-7.46,2.6-6.69,3.48-13.43,6.87-20.15,10.3a147.21,147.21,0,0,0-28.51,19.27c-8.41,7.16-16.49,14.7-24.8,22-7.18,6.3-12.73,13.9-17.81,21.89a6.73,6.73,0,0,0-.43,1c-2.22,2.53-4.55,5-6.63,7.6A172.76,172.76,0,0,0,389.53,505c-2,4-4.32,7.69-3.89,12.32.34,3.64.84,7.27,1.39,10.89,1.3,8.48,6.55,14,14.06,17.2a205.44,205.44,0,0,1,68,46.05c27.24,27.84,44.88,60.9,53.31,98.89.71,3.22,1.11,6.5,1.88,9.7.44,1.88-.31,2.06-1.84,2-3.38-.05-6.75.06-10.12.06H374.12q-88.56,0-177.12-.08c-21.63,0-43.27,0-64.91.07-2.27,0-4.54-.1-6.81-.07-1.21,0-1.72-.22-1.49-1.6A201.54,201.54,0,0,1,156.5,619a206.23,206.23,0,0,1,36.23-40.29c4.94-4.24,9.32-9.32,14.75-12.78,8.55-5.45,17.69-10,26.74-14.64,7.35-3.76,15-6.9,22.36-10.68,1.82-.94,3.28-3.1,4.25-5,3.85-7.71,2.62-15.45-1.52-22.47s-9-13.34-13.76-19.86C244.29,491.5,242.4,490.22,240.8,488.73Z" transform="translate(-88.21 -44.33)"/><path class="cls-2" d="M324.14,238.2c-.08-1.11-.14-1.67-.16-2.23-.32-8.55-.48-17.12-1-25.66-.3-4.94-1.22-9.85-1.8-14.78-.45-3.84-.78-7.7-1.21-11.54-.93-8.27-1.81-16.54-2.86-24.79-1-7.75-2.19-15.47-3.31-23.19-1.24-8.6-2.55-17.18-3.72-25.79-.76-5.62-1.55-11.26-1.92-16.92a76,76,0,0,1,.33-12c.25-2.58,3.54-5,5.95-4.91,3.41.12,5.22,1.79,6,5a106.1,106.1,0,0,0,3.13,11.83A262.44,262.44,0,0,1,335.39,140q3.8,24.11,7.47,48.24c1.33,8.72,2.59,17.46,3.89,26.2a3.52,3.52,0,0,1-1.22,3.5c-4.35,3.81-8.66,7.67-12.88,11.62-2.24,2.1-4.26,4.44-6.39,6.66C325.71,236.74,325.11,237.27,324.14,238.2Z" transform="translate(-88.21 -44.33)"/><path class="cls-2" d="M440.89,246.49c-2.24-5.82-4.51-11.76-6.84-17.68a2.81,2.81,0,0,1,.55-3.32c4.14-4.83,8.09-9.82,12.21-14.67a11.29,11.29,0,0,1,3.29-2.5c2-1.07,3.78-.34,4.56,1.83a12.33,12.33,0,0,1-.38,10.4q-4.51,8.55-9,17.13C443.77,240.66,442.3,243.68,440.89,246.49Z" transform="translate(-88.21 -44.33)"/></svg>